<svg width="44" height="59" viewBox="0 0 44 59" fill="none" xmlns="http://www.w3.org/2000/svg">
<circle cx="22.0422" cy="21.9256" r="21.2871" stroke="#646464" stroke-width="1.21641"/>
<rect x="33.8787" y="14.6272" width="1.21641" height="8.138" transform="rotate(45 33.8787 14.6272)" fill="#646464"/>
<rect x="28.1547" y="15.5034" width="1.21641" height="8.24554" transform="rotate(-45 28.1547 15.5034)" fill="#646464"/>
<rect x="14.4162" y="14.6272" width="1.21641" height="8.138" transform="rotate(45 14.4162 14.6272)" fill="#646464"/>
<rect x="8.69222" y="15.5034" width="1.21641" height="8.24554" transform="rotate(-45 8.69222 15.5034)" fill="#646464"/>
<path d="M12.3109 32.8733C15.4715 30.1196 23.7888 26.2643 31.7734 32.8733" stroke="#646464" stroke-width="1.21641"/>
<path d="M5.45662 56.4072L8.65577 47.5275H10.675L13.9715 56.4072H12.7429L11.7698 53.7555H7.5975L6.6487 56.4072H5.45662ZM7.97458 52.685H11.3684L9.87218 48.5979H9.42211L7.97458 52.685ZM16.3208 56.4072L14.4841 49.9116H15.6032L17.1358 55.4828H17.3791L18.4982 50.1306H20.0795L21.3811 55.4828H21.6244L22.9624 49.9116H24.0207L22.4272 56.4072H20.6148L19.2889 51.0064L18.1455 56.4072H16.3208ZM25.7681 56.4072V50.8604H24.868V49.9846H25.7681V49.5832C25.7681 48.8615 25.9587 48.3303 26.3398 47.9897C26.721 47.6491 27.2805 47.4788 28.0185 47.4788H28.8213V48.4519H27.8239C27.5238 48.4519 27.2927 48.5371 27.1305 48.7074C26.9683 48.8696 26.8872 49.0966 26.8872 49.3886V49.9846H28.943V50.8604H26.8872V56.4072H25.7681ZM32.4572 56.6019C31.6868 56.6019 31.0949 56.3505 30.6813 55.8477C30.2677 55.3449 30.0609 54.6191 30.0609 53.6703V49.8995H31.2287V53.9014C31.2287 54.4123 31.3665 54.8137 31.6422 55.1057C31.918 55.3895 32.291 55.5314 32.7613 55.5314C33.2479 55.5314 33.6453 55.3773 33.9534 55.0692C34.2616 54.7529 34.4156 54.3231 34.4156 53.7798V49.8995H35.5834V56.4072H34.6589V54.911C34.513 55.4625 34.2616 55.8842 33.9048 56.1761C33.5479 56.4599 33.0817 56.6019 32.5059 56.6019H32.4572ZM37.918 56.4072V48.4519H37.0179V47.5275H39.0858V56.4072H37.918Z" fill="#646464"/>
</svg>
