<svg width="44" height="59" viewBox="0 0 44 59" fill="none" xmlns="http://www.w3.org/2000/svg">
<circle cx="22.0055" cy="21.9256" r="21.2871" stroke="#2D6187" stroke-width="1.21641"/>
<circle r="1.82461" transform="matrix(-1 0 0 1 12.2742 18.2763)" stroke="#2D6187" stroke-width="1.21641"/>
<circle r="1.82461" transform="matrix(-1 0 0 1 31.7367 18.2763)" stroke="#2D6187" stroke-width="1.21641"/>
<path d="M12.2742 32.8733C15.4348 30.1196 23.7521 26.2643 31.7367 32.8733" stroke="#2D6187" stroke-width="1.21641"/>
<path d="M10.9496 56.4559V47.4788H13.8447C14.8178 47.4788 15.5436 47.6856 16.022 48.0992C16.5005 48.5046 16.7397 49.0926 16.7397 49.863V50.0333C16.7397 50.4955 16.6505 50.8766 16.4721 51.1767C16.2937 51.4686 16.0464 51.6957 15.7301 51.8579C16.1518 52.0038 16.4843 52.239 16.7276 52.5634C16.9789 52.8796 17.1046 53.3094 17.1046 53.8528V54.0231C17.1046 54.8016 16.8654 55.4017 16.387 55.8234C15.9085 56.245 15.1827 56.4559 14.2096 56.4559H10.9496ZM14.0515 48.5249H12.1417V51.4321H14.0515C14.5542 51.4321 14.9232 51.2983 15.1584 51.0307C15.4017 50.755 15.5233 50.4063 15.5233 49.9846C15.5233 49.5548 15.4017 49.2061 15.1584 48.9385C14.9232 48.6628 14.5542 48.5249 14.0515 48.5249ZM14.3799 52.4296H12.1417V55.4098H14.3799C14.8583 55.4098 15.2273 55.276 15.4868 55.0084C15.7544 54.7326 15.8882 54.3677 15.8882 53.9136C15.8882 53.4514 15.7585 53.0905 15.499 52.831C15.2395 52.5634 14.8665 52.4296 14.3799 52.4296ZM20.8474 56.5775C20.1094 56.5775 19.5296 56.3951 19.1079 56.0301C18.6943 55.6571 18.4875 55.1341 18.4875 54.461C18.4875 53.7717 18.7187 53.2527 19.1809 52.904C19.6431 52.5472 20.2959 52.3688 21.1393 52.3688H22.7815V52.2106C22.7815 51.3105 22.3273 50.8604 21.4191 50.8604C21.046 50.8604 20.6568 50.8685 20.2513 50.8847C19.8459 50.901 19.5093 50.9172 19.2417 50.9334V49.9116C19.5012 49.8873 19.7891 49.8711 20.1054 49.863C20.4297 49.8467 20.7379 49.8386 21.0298 49.8386C22.0273 49.8386 22.7531 50.0211 23.2072 50.386C23.6694 50.7509 23.9006 51.3875 23.9006 52.2958V56.4072H22.9761V55.1178C22.6841 56.091 21.9746 56.5775 20.8474 56.5775ZM21.0907 55.6531C21.3664 55.6531 21.6299 55.6044 21.8813 55.5071C22.1327 55.4017 22.3395 55.2314 22.5017 54.9962C22.672 54.7529 22.7652 54.4204 22.7815 53.9987V53.2446H21.0907C20.6203 53.2446 20.2594 53.3581 20.008 53.5852C19.7567 53.8122 19.631 54.1042 19.631 54.461C19.631 54.8178 19.7567 55.1057 20.008 55.3246C20.2594 55.5436 20.6203 55.6531 21.0907 55.6531ZM28.7564 56.6262C28.1401 56.6262 27.5886 56.4762 27.1021 56.1761C26.6236 55.8761 26.2465 55.4746 25.9708 54.9719C25.6951 54.461 25.5572 53.8933 25.5572 53.2689V53.0499C25.5572 52.4336 25.691 51.8741 25.9587 51.3713C26.2263 50.8604 26.5952 50.4549 27.0656 50.1549C27.544 49.8467 28.0955 49.6927 28.7199 49.6927C29.1983 49.6927 29.6363 49.79 30.0336 49.9846C30.4391 50.1792 30.7675 50.4833 31.0189 50.8969V47.5275H32.1867V56.4072H31.2622V55.0692C31.0108 55.6206 30.658 56.018 30.2039 56.2613C29.7579 56.5045 29.2754 56.6262 28.7564 56.6262ZM28.9145 55.6044C29.3119 55.6044 29.6727 55.5152 29.9971 55.3368C30.3215 55.1584 30.581 54.9029 30.7756 54.5705C30.9702 54.2299 31.0676 53.8325 31.0676 53.3784V52.8188C31.0676 52.3728 30.9662 51.9957 30.7635 51.6876C30.5688 51.3713 30.3053 51.1321 29.9728 50.9699C29.6484 50.7996 29.2916 50.7144 28.9024 50.7144C28.2536 50.7144 27.7265 50.9375 27.321 51.3835C26.9237 51.8295 26.725 52.4215 26.725 53.1594C26.725 53.6541 26.8182 54.0879 27.0048 54.461C27.1913 54.8259 27.4508 55.1097 27.7833 55.3125C28.1157 55.5071 28.4928 55.6044 28.9145 55.6044Z" fill="#2D6187"/>
</svg>
