<svg width="44" height="59" viewBox="0 0 44 59" fill="none" xmlns="http://www.w3.org/2000/svg">
<circle cx="21.932" cy="21.9256" r="21.2871" stroke="#61B15A" stroke-width="1.21641"/>
<circle r="1.82461" transform="matrix(-1 0 0 1 12.2008 18.2763)" stroke="#61B15A" stroke-width="1.21641"/>
<circle r="1.82461" transform="matrix(-1 0 0 1 30.4469 18.2763)" stroke="#61B15A" stroke-width="1.21641"/>
<mask id="path-4-inside-1" fill="white">
<path d="M30.4469 26.7912C30.4469 29.0495 29.5498 31.2153 27.953 32.8121C26.3561 34.409 24.1903 35.3061 21.9321 35.3061C19.6738 35.3061 17.508 34.409 15.9112 32.8121C14.3143 31.2153 13.4172 29.0495 13.4172 26.7912L21.9321 26.7912H30.4469Z"/>
</mask>
<path d="M30.4469 26.7912C30.4469 29.0495 29.5498 31.2153 27.953 32.8121C26.3561 34.409 24.1903 35.3061 21.9321 35.3061C19.6738 35.3061 17.508 34.409 15.9112 32.8121C14.3143 31.2153 13.4172 29.0495 13.4172 26.7912L21.9321 26.7912H30.4469Z" stroke="#61B15A" stroke-width="2.43281" mask="url(#path-4-inside-1)"/>
<path d="M10.0278 56.6262C9.11148 56.6262 8.30865 56.4275 7.61936 56.0301C6.93817 55.6328 6.407 55.0854 6.02586 54.388C5.64472 53.6906 5.45415 52.8999 5.45415 52.016V51.7484C5.45415 51.1807 5.55146 50.6334 5.74609 50.1062C5.94882 49.571 6.23671 49.0926 6.60974 48.6709C6.99088 48.2411 7.45311 47.9045 7.99644 47.6613C8.53977 47.4099 9.15203 47.2842 9.83321 47.2842C10.5712 47.2842 11.228 47.4261 11.8038 47.7099C12.3796 47.9856 12.8418 48.3749 13.1905 48.8777C13.5392 49.3723 13.7419 49.9481 13.7987 50.605H12.5823C12.5255 50.1103 12.3633 49.7008 12.0957 49.3764C11.8281 49.0439 11.4956 48.7966 11.0983 48.6344C10.709 48.4641 10.2873 48.3789 9.83321 48.3789C9.2169 48.3789 8.66952 48.5249 8.19107 48.8169C7.71261 49.1088 7.33958 49.5183 7.07197 50.0454C6.80436 50.5644 6.67056 51.1807 6.67056 51.8944C6.67056 52.7053 6.81247 53.3824 7.0963 53.9258C7.38824 54.4691 7.7856 54.8786 8.28838 55.1543C8.79927 55.4219 9.37909 55.5557 10.0278 55.5557C10.5631 55.5557 11.0496 55.4706 11.4875 55.3003C11.9254 55.13 12.2944 54.8989 12.5945 54.6069V53.0986H9.71157V52.1011H14.4677V53.0986H13.7136V54.9719C13.3162 55.4909 12.8053 55.8963 12.1809 56.1883C11.5565 56.4802 10.8388 56.6262 10.0278 56.6262ZM18.9934 56.6262C18.4258 56.6262 17.927 56.5289 17.4972 56.3342C17.0674 56.1396 16.7025 55.8842 16.4025 55.5679C16.1105 55.2435 15.8875 54.8827 15.7335 54.4853C15.5875 54.0879 15.5145 53.6825 15.5145 53.2689V53.0499C15.5145 52.6364 15.5915 52.2309 15.7456 51.8335C15.8997 51.4281 16.1268 51.0672 16.4268 50.7509C16.7268 50.4266 17.0918 50.1711 17.5216 49.9846C17.9514 49.79 18.442 49.6927 18.9934 49.6927C19.5449 49.6927 20.0355 49.79 20.4653 49.9846C20.8951 50.1711 21.26 50.4266 21.56 50.7509C21.8601 51.0672 22.0871 51.4281 22.2412 51.8335C22.3953 52.2309 22.4723 52.6364 22.4723 53.0499V53.2689C22.4723 53.6825 22.3953 54.0879 22.2412 54.4853C22.0953 54.8827 21.8722 55.2435 21.5722 55.5679C21.2803 55.8842 20.9194 56.1396 20.4896 56.3342C20.0598 56.5289 19.5611 56.6262 18.9934 56.6262ZM18.9934 55.5801C19.48 55.5801 19.8936 55.4746 20.2342 55.2638C20.5829 55.0449 20.8464 54.7529 21.0248 54.388C21.2113 54.0231 21.3046 53.6135 21.3046 53.1594C21.3046 52.6972 21.2113 52.2836 21.0248 51.9187C20.8383 51.5538 20.5707 51.2659 20.222 51.055C19.8814 50.8442 19.4719 50.7388 18.9934 50.7388C18.5231 50.7388 18.1136 50.8442 17.7648 51.055C17.4161 51.2659 17.1485 51.5538 16.962 51.9187C16.7755 52.2836 16.6822 52.6972 16.6822 53.1594C16.6822 53.6135 16.7715 54.0231 16.9499 54.388C17.1364 54.7529 17.3999 55.0449 17.7405 55.2638C18.0892 55.4746 18.5069 55.5801 18.9934 55.5801ZM27.2137 56.6262C26.646 56.6262 26.1473 56.5289 25.7175 56.3342C25.2877 56.1396 24.9228 55.8842 24.6227 55.5679C24.3308 55.2435 24.1078 54.8827 23.9537 54.4853C23.8077 54.0879 23.7347 53.6825 23.7347 53.2689V53.0499C23.7347 52.6364 23.8118 52.2309 23.9659 51.8335C24.1199 51.4281 24.347 51.0672 24.647 50.7509C24.9471 50.4266 25.312 50.1711 25.7418 49.9846C26.1716 49.79 26.6622 49.6927 27.2137 49.6927C27.7651 49.6927 28.2557 49.79 28.6855 49.9846C29.1153 50.1711 29.4802 50.4266 29.7803 50.7509C30.0803 51.0672 30.3074 51.4281 30.4615 51.8335C30.6155 52.2309 30.6926 52.6364 30.6926 53.0499V53.2689C30.6926 53.6825 30.6155 54.0879 30.4615 54.4853C30.3155 54.8827 30.0925 55.2435 29.7924 55.5679C29.5005 55.8842 29.1396 56.1396 28.7098 56.3342C28.28 56.5289 27.7813 56.6262 27.2137 56.6262ZM27.2137 55.5801C27.7002 55.5801 28.1138 55.4746 28.4544 55.2638C28.8031 55.0449 29.0667 54.7529 29.2451 54.388C29.4316 54.0231 29.5248 53.6135 29.5248 53.1594C29.5248 52.6972 29.4316 52.2836 29.2451 51.9187C29.0585 51.5538 28.7909 51.2659 28.4422 51.055C28.1016 50.8442 27.6921 50.7388 27.2137 50.7388C26.7433 50.7388 26.3338 50.8442 25.9851 51.055C25.6364 51.2659 25.3688 51.5538 25.1823 51.9187C24.9958 52.2836 24.9025 52.6972 24.9025 53.1594C24.9025 53.6135 24.9917 54.0231 25.1701 54.388C25.3566 54.7529 25.6202 55.0449 25.9608 55.2638C26.3095 55.4746 26.7271 55.5801 27.2137 55.5801ZM35.1541 56.6262C34.5378 56.6262 33.9864 56.4762 33.4998 56.1761C33.0214 55.8761 32.6443 55.4746 32.3686 54.9719C32.0929 54.461 31.955 53.8933 31.955 53.2689V53.0499C31.955 52.4336 32.0888 51.8741 32.3564 51.3713C32.624 50.8604 32.993 50.4549 33.4633 50.1549C33.9418 49.8467 34.4932 49.6927 35.1176 49.6927C35.5961 49.6927 36.034 49.79 36.4314 49.9846C36.8368 50.1792 37.1653 50.4833 37.4167 50.8969V47.5275H38.5844V56.4072H37.6599V55.0692C37.4085 55.6206 37.0558 56.018 36.6017 56.2613C36.1556 56.5045 35.6731 56.6262 35.1541 56.6262ZM35.3123 55.6044C35.7096 55.6044 36.0705 55.5152 36.3949 55.3368C36.7192 55.1584 36.9787 54.9029 37.1734 54.5705C37.368 54.2299 37.4653 53.8325 37.4653 53.3784V52.8188C37.4653 52.3728 37.3639 51.9957 37.1612 51.6876C36.9666 51.3713 36.703 51.1321 36.3705 50.9699C36.0462 50.7996 35.6894 50.7144 35.3001 50.7144C34.6514 50.7144 34.1242 50.9375 33.7188 51.3835C33.3214 51.8295 33.1227 52.4215 33.1227 53.1594C33.1227 53.6541 33.216 54.0879 33.4025 54.461C33.589 54.8259 33.8485 55.1097 34.181 55.3125C34.5135 55.5071 34.8906 55.6044 35.3123 55.6044Z" fill="#61B15A"/>
</svg>
