<svg width="44" height="59" viewBox="0 0 44 59" fill="none" xmlns="http://www.w3.org/2000/svg">
<circle cx="21.8953" cy="21.9256" r="21.2871" stroke="#FFA62B" stroke-width="1.21641"/>
<mask id="path-2-inside-1" fill="white">
<path d="M34.0594 27.3994C34.0594 30.4642 32.8419 33.4034 30.6747 35.5706C28.5076 37.7377 25.5683 38.9552 22.5035 38.9552C19.4387 38.9552 16.4994 37.7377 14.3323 35.5706C12.1651 33.4035 10.9476 30.4642 10.9476 27.3994L22.5035 27.3994H34.0594Z"/>
</mask>
<path d="M34.0594 27.3994C34.0594 30.4642 32.8419 33.4034 30.6747 35.5706C28.5076 37.7377 25.5683 38.9552 22.5035 38.9552C19.4387 38.9552 16.4994 37.7377 14.3323 35.5706C12.1651 33.4035 10.9476 30.4642 10.9476 27.3994L22.5035 27.3994H34.0594Z" stroke="#FFA62B" stroke-width="2.43281" mask="url(#path-2-inside-1)"/>
<line x1="6.08202" y1="21.3173" x2="15.8133" y2="21.3173" stroke="#FFA62B" stroke-width="1.21641"/>
<line x1="29.1937" y1="21.3173" x2="38.925" y2="21.3173" stroke="#FFA62B" stroke-width="1.21641"/>
<path d="M6.80773 56.6262C5.89137 56.6262 5.08854 56.4275 4.39925 56.0301C3.71806 55.6328 3.1869 55.0854 2.80576 54.388C2.42461 53.6906 2.23404 52.8999 2.23404 52.016V51.7484C2.23404 51.1807 2.33136 50.6334 2.52598 50.1062C2.72872 49.571 3.0166 49.0926 3.38963 48.6709C3.77077 48.2411 4.23301 47.9045 4.77633 47.6613C5.31966 47.4099 5.93192 47.2842 6.61311 47.2842C7.35106 47.2842 8.00792 47.4261 8.58369 47.7099C9.15945 47.9856 9.62169 48.3749 9.97039 48.8777C10.3191 49.3723 10.5218 49.9481 10.5786 50.605H9.36219C9.30542 50.1103 9.14323 49.7008 8.87562 49.3764C8.60801 49.0439 8.27553 48.7966 7.87817 48.6344C7.48892 48.4641 7.06723 48.3789 6.61311 48.3789C5.99679 48.3789 5.44941 48.5249 4.97096 48.8169C4.49251 49.1088 4.11947 49.5183 3.85186 50.0454C3.58426 50.5644 3.45045 51.1807 3.45045 51.8944C3.45045 52.7053 3.59236 53.3824 3.87619 53.9258C4.16813 54.4691 4.56549 54.8786 5.06827 55.1543C5.57916 55.4219 6.15898 55.5557 6.80773 55.5557C7.34295 55.5557 7.82951 55.4706 8.26742 55.3003C8.70533 55.13 9.0743 54.8989 9.37435 54.6069V53.0986H6.49147V52.1011H11.2476V53.0986H10.4934V54.9719C10.0961 55.4909 9.58519 55.8963 8.96077 56.1883C8.33635 56.4802 7.61867 56.6262 6.80773 56.6262ZM12.781 56.4072V49.9116H13.7054V51.8579C13.8027 51.1605 14.0582 50.6496 14.4718 50.3252C14.8853 50.0008 15.4489 49.8386 16.1626 49.8386H16.3815V50.8847H15.9679C15.3192 50.8847 14.8205 51.0591 14.4718 51.4078C14.1231 51.7484 13.9487 52.2431 13.9487 52.8918V56.4072H12.781ZM20.4601 56.6262C19.8924 56.6262 19.4018 56.5289 18.9882 56.3342C18.5747 56.1396 18.2381 55.8842 17.9786 55.5679C17.7191 55.2435 17.5245 54.8827 17.3947 54.4853C17.2731 54.0879 17.2123 53.6825 17.2123 53.2689V53.0499C17.2123 52.6283 17.2731 52.2187 17.3947 51.8214C17.5245 51.424 17.7191 51.0672 17.9786 50.7509C18.2381 50.4266 18.5665 50.1711 18.9639 49.9846C19.3694 49.79 19.8438 49.6927 20.3871 49.6927C21.0926 49.6927 21.6724 49.8467 22.1266 50.1549C22.5888 50.4549 22.9294 50.8442 23.1483 51.3226C23.3754 51.8011 23.4889 52.312 23.4889 52.8553V53.3784H18.3314C18.3719 54.019 18.5625 54.5502 18.9031 54.9719C19.2437 55.3936 19.7627 55.6044 20.4601 55.6044C20.971 55.6044 21.3846 55.4909 21.7008 55.2638C22.0252 55.0367 22.2198 54.7732 22.2847 54.4731H23.3795C23.2416 55.1462 22.9132 55.6733 22.3942 56.0545C21.8752 56.4356 21.2305 56.6262 20.4601 56.6262ZM20.3871 50.7144C19.8032 50.7144 19.345 50.8807 19.0126 51.2132C18.6801 51.5375 18.4692 51.9673 18.38 52.5026H22.3455C22.2725 51.9511 22.0739 51.5173 21.7495 51.201C21.4251 50.8766 20.971 50.7144 20.3871 50.7144ZM26.9472 56.5775C26.2093 56.5775 25.6295 56.3951 25.2078 56.0301C24.7942 55.6571 24.5874 55.1341 24.5874 54.461C24.5874 53.7717 24.8185 53.2527 25.2808 52.904C25.743 52.5472 26.3958 52.3688 27.2392 52.3688H28.8813V52.2106C28.8813 51.3105 28.4272 50.8604 27.519 50.8604C27.1459 50.8604 26.7567 50.8685 26.3512 50.8847C25.9457 50.901 25.6092 50.9172 25.3416 50.9334V49.9116C25.6011 49.8873 25.889 49.8711 26.2052 49.863C26.5296 49.8467 26.8378 49.8386 27.1297 49.8386C28.1272 49.8386 28.8529 50.0211 29.3071 50.386C29.7693 50.7509 30.0004 51.3875 30.0004 52.2958V56.4072H29.076V55.1178C28.784 56.091 28.0744 56.5775 26.9472 56.5775ZM27.1905 55.6531C27.4662 55.6531 27.7298 55.6044 27.9812 55.5071C28.2326 55.4017 28.4394 55.2314 28.6016 54.9962C28.7718 54.7529 28.8651 54.4204 28.8813 53.9987V53.2446H27.1905C26.7202 53.2446 26.3593 53.3581 26.1079 53.5852C25.8565 53.8122 25.7308 54.1042 25.7308 54.461C25.7308 54.8178 25.8565 55.1057 26.1079 55.3246C26.3593 55.5436 26.7202 55.6531 27.1905 55.6531ZM34.6738 56.4802C34.1872 56.4802 33.7655 56.4113 33.4087 56.2734C33.06 56.1356 32.7884 55.9004 32.5937 55.5679C32.4072 55.2273 32.314 54.7691 32.314 54.1934V50.7874H31.1949V49.9116H32.314V47.941H33.4331V49.9116H35.6712V50.7874H33.4331V54.3393C33.4331 54.688 33.5263 54.9597 33.7128 55.1543C33.9075 55.3408 34.1791 55.4341 34.5278 55.4341H35.6712V56.4802H34.6738ZM37.4081 53.7555V47.5275H38.6001V53.7555H37.4081ZM37.2986 56.4072V54.9232H38.7096V56.4072H37.2986Z" fill="#FFA62B"/>
</svg>
