<svg width="165" height="42" viewBox="0 0 165 42" fill="none" xmlns="http://www.w3.org/2000/svg">
<g filter="url(#filter0_d)">
<rect x="2" width="161" height="38" rx="5" fill="#A3DDCB"/>
<rect x="2.5" y="0.5" width="160" height="37" rx="4.5" stroke="#A3DDCB"/>
</g>
<path d="M37.08 23V14.24H38.784V21.5H42.324V23H37.08ZM46.6425 23.228C45.8745 23.228 45.2265 23.072 44.6985 22.76C44.1705 22.44 43.7665 22.024 43.4865 21.512C43.2145 21 43.0785 20.456 43.0785 19.88V19.628C43.0785 19.028 43.2185 18.472 43.4985 17.96C43.7865 17.448 44.1945 17.036 44.7225 16.724C45.2585 16.412 45.8985 16.256 46.6425 16.256C47.3785 16.256 48.0105 16.412 48.5385 16.724C49.0745 17.036 49.4825 17.448 49.7625 17.96C50.0505 18.472 50.1945 19.028 50.1945 19.628V19.88C50.1945 20.456 50.0545 21 49.7745 21.512C49.5025 22.024 49.1025 22.44 48.5745 22.76C48.0465 23.072 47.4025 23.228 46.6425 23.228ZM46.6425 21.8C47.2505 21.8 47.7145 21.608 48.0345 21.224C48.3625 20.832 48.5265 20.34 48.5265 19.748C48.5265 19.156 48.3585 18.664 48.0225 18.272C47.6865 17.88 47.2265 17.684 46.6425 17.684C46.0505 17.684 45.5865 17.88 45.2505 18.272C44.9145 18.664 44.7465 19.156 44.7465 19.748C44.7465 20.34 44.9065 20.832 45.2265 21.224C45.5545 21.608 46.0265 21.8 46.6425 21.8ZM54.199 25.568C53.535 25.568 52.915 25.524 52.339 25.436V24.044C52.619 24.084 52.923 24.116 53.251 24.14C53.587 24.164 53.899 24.176 54.187 24.176C54.987 24.176 55.563 24.028 55.915 23.732C56.275 23.444 56.455 22.976 56.455 22.328V21.752C56.231 22.176 55.923 22.5 55.531 22.724C55.147 22.94 54.703 23.048 54.199 23.048C53.599 23.048 53.075 22.904 52.627 22.616C52.187 22.32 51.843 21.928 51.595 21.44C51.347 20.944 51.223 20.388 51.223 19.772V19.52C51.223 18.904 51.351 18.352 51.607 17.864C51.871 17.376 52.231 16.992 52.687 16.712C53.151 16.424 53.687 16.28 54.295 16.28C54.863 16.28 55.351 16.412 55.759 16.676C56.175 16.94 56.491 17.32 56.707 17.816V16.484H58.027V22.232C58.027 23.424 57.719 24.276 57.103 24.788C56.487 25.308 55.519 25.568 54.199 25.568ZM54.679 21.62C54.999 21.62 55.291 21.548 55.555 21.404C55.819 21.26 56.031 21.052 56.191 20.78C56.351 20.508 56.431 20.18 56.431 19.796V19.376C56.431 19.008 56.347 18.696 56.179 18.44C56.019 18.184 55.803 17.992 55.531 17.864C55.267 17.728 54.983 17.66 54.679 17.66C54.151 17.66 53.719 17.844 53.383 18.212C53.055 18.572 52.891 19.052 52.891 19.652C52.891 20.26 53.055 20.74 53.383 21.092C53.719 21.444 54.151 21.62 54.679 21.62ZM63.3603 15.704C63.0323 15.704 62.7883 15.62 62.6283 15.452C62.4763 15.276 62.4003 15.056 62.4003 14.792C62.4003 14.528 62.4763 14.312 62.6283 14.144C62.7883 13.976 63.0323 13.892 63.3603 13.892C63.6803 13.892 63.9163 13.976 64.0683 14.144C64.2283 14.312 64.3083 14.528 64.3083 14.792C64.3083 15.056 64.2283 15.276 64.0683 15.452C63.9163 15.62 63.6803 15.704 63.3603 15.704ZM62.7483 23V17.732H61.8363V16.484H64.4163V23H62.7483ZM66.3386 23V16.484H67.6586V18.092C67.9386 16.884 68.6826 16.28 69.8906 16.28H69.9626C70.7386 16.28 71.3266 16.532 71.7266 17.036C72.1266 17.54 72.3266 18.284 72.3266 19.268V23H70.6586V19.124C70.6586 18.724 70.5426 18.4 70.3106 18.152C70.0786 17.904 69.7666 17.78 69.3746 17.78C68.9666 17.78 68.6346 17.908 68.3786 18.164C68.1306 18.42 68.0066 18.756 68.0066 19.172V23H66.3386ZM77.7777 23L76.0017 16.484H77.6217L78.9537 21.632H79.2057L80.1777 16.7H82.0977L83.2137 21.632H83.4657L84.6537 16.484H86.1657L84.5937 23H82.2057L81.1257 18.32L80.1657 23H77.7777ZM88.4033 15.704C88.0753 15.704 87.8313 15.62 87.6713 15.452C87.5193 15.276 87.4433 15.056 87.4433 14.792C87.4433 14.528 87.5193 14.312 87.6713 14.144C87.8313 13.976 88.0753 13.892 88.4033 13.892C88.7233 13.892 88.9593 13.976 89.1113 14.144C89.2713 14.312 89.3513 14.528 89.3513 14.792C89.3513 15.056 89.2713 15.276 89.1113 15.452C88.9593 15.62 88.7233 15.704 88.4033 15.704ZM87.7913 23V17.732H86.8793V16.484H89.4593V23H87.7913ZM94.2136 23.084C93.6136 23.084 93.1176 23.008 92.7256 22.856C92.3336 22.696 92.0416 22.432 91.8496 22.064C91.6656 21.696 91.5736 21.192 91.5736 20.552V17.708H90.5416V16.484H91.5736L91.5856 14.648H93.1456L93.1336 16.484H95.1496V17.708H93.1336V20.66C93.1336 20.98 93.2176 21.228 93.3856 21.404C93.5616 21.572 93.8096 21.656 94.1296 21.656H95.1496V23.084H94.2136ZM96.5496 23V14.24H98.2176V17.576C98.3856 17.16 98.6336 16.84 98.9616 16.616C99.2896 16.392 99.7016 16.28 100.198 16.28H100.27C101.014 16.28 101.578 16.54 101.962 17.06C102.346 17.572 102.538 18.312 102.538 19.28V23H100.87V19.124C100.87 18.708 100.75 18.38 100.51 18.14C100.278 17.9 99.9696 17.78 99.5856 17.78C99.1696 17.78 98.8376 17.916 98.5896 18.188C98.3416 18.452 98.2176 18.8 98.2176 19.232V23H96.5496ZM110.041 23.228C109.265 23.228 108.609 23.104 108.073 22.856C107.537 22.608 107.129 22.268 106.849 21.836C106.577 21.404 106.441 20.908 106.441 20.348H108.109C108.109 20.588 108.173 20.816 108.301 21.032C108.429 21.248 108.633 21.424 108.913 21.56C109.201 21.696 109.577 21.764 110.041 21.764C110.665 21.764 111.133 21.636 111.445 21.38C111.757 21.124 111.913 20.812 111.913 20.444C111.913 20.14 111.781 19.892 111.517 19.7C111.253 19.508 110.845 19.388 110.293 19.34L109.525 19.28C108.685 19.208 108.013 18.948 107.509 18.5C107.013 18.044 106.765 17.444 106.765 16.7C106.765 16.148 106.893 15.668 107.149 15.26C107.413 14.852 107.785 14.54 108.265 14.324C108.745 14.1 109.305 13.988 109.945 13.988C110.601 13.988 111.169 14.104 111.649 14.336C112.137 14.568 112.513 14.896 112.777 15.32C113.041 15.736 113.173 16.228 113.173 16.796H111.505C111.505 16.444 111.373 16.132 111.109 15.86C110.853 15.588 110.465 15.452 109.945 15.452C109.433 15.452 109.053 15.576 108.805 15.824C108.557 16.072 108.433 16.364 108.433 16.7C108.433 16.972 108.529 17.212 108.721 17.42C108.921 17.62 109.241 17.736 109.681 17.768L110.449 17.84C111.073 17.896 111.617 18.032 112.081 18.248C112.553 18.456 112.921 18.744 113.185 19.112C113.449 19.48 113.581 19.924 113.581 20.444C113.581 20.996 113.433 21.484 113.137 21.908C112.849 22.324 112.441 22.648 111.913 22.88C111.385 23.112 110.761 23.228 110.041 23.228ZM115.007 25.4V16.484H116.327V18.116C116.527 17.508 116.855 17.052 117.311 16.748C117.767 16.436 118.291 16.28 118.883 16.28C119.499 16.28 120.031 16.428 120.479 16.724C120.935 17.02 121.291 17.42 121.547 17.924C121.803 18.42 121.931 18.98 121.931 19.604V19.856C121.931 20.48 121.807 21.048 121.559 21.56C121.311 22.064 120.959 22.468 120.503 22.772C120.047 23.068 119.507 23.216 118.883 23.216C118.427 23.216 118.007 23.132 117.623 22.964C117.239 22.788 116.923 22.512 116.675 22.136V25.4H115.007ZM118.463 21.812C118.999 21.812 119.431 21.62 119.759 21.236C120.095 20.844 120.263 20.344 120.263 19.736C120.263 19.12 120.095 18.624 119.759 18.248C119.431 17.872 118.999 17.684 118.463 17.684C118.135 17.684 117.831 17.76 117.551 17.912C117.271 18.056 117.047 18.268 116.879 18.548C116.711 18.82 116.627 19.152 116.627 19.544V20.024C116.627 20.4 116.715 20.724 116.891 20.996C117.067 21.26 117.295 21.464 117.575 21.608C117.855 21.744 118.151 21.812 118.463 21.812ZM126.529 23.228C125.761 23.228 125.113 23.072 124.585 22.76C124.057 22.44 123.653 22.024 123.373 21.512C123.101 21 122.965 20.456 122.965 19.88V19.628C122.965 19.028 123.105 18.472 123.385 17.96C123.673 17.448 124.081 17.036 124.609 16.724C125.145 16.412 125.785 16.256 126.529 16.256C127.265 16.256 127.897 16.412 128.425 16.724C128.961 17.036 129.369 17.448 129.649 17.96C129.937 18.472 130.081 19.028 130.081 19.628V19.88C130.081 20.456 129.941 21 129.661 21.512C129.389 22.024 128.989 22.44 128.461 22.76C127.933 23.072 127.289 23.228 126.529 23.228ZM126.529 21.8C127.137 21.8 127.601 21.608 127.921 21.224C128.249 20.832 128.413 20.34 128.413 19.748C128.413 19.156 128.245 18.664 127.909 18.272C127.573 17.88 127.113 17.684 126.529 17.684C125.937 17.684 125.473 17.88 125.137 18.272C124.801 18.664 124.633 19.156 124.633 19.748C124.633 20.34 124.793 20.832 125.113 21.224C125.441 21.608 125.913 21.8 126.529 21.8ZM134.374 23.084C133.774 23.084 133.278 23.008 132.886 22.856C132.494 22.696 132.202 22.432 132.01 22.064C131.826 21.696 131.734 21.192 131.734 20.552V17.708H130.702V16.484H131.734L131.746 14.648H133.306L133.294 16.484H135.31V17.708H133.294V20.66C133.294 20.98 133.378 21.228 133.546 21.404C133.722 21.572 133.97 21.656 134.29 21.656H135.31V23.084H134.374ZM137.634 15.704C137.306 15.704 137.062 15.62 136.902 15.452C136.75 15.276 136.674 15.056 136.674 14.792C136.674 14.528 136.75 14.312 136.902 14.144C137.062 13.976 137.306 13.892 137.634 13.892C137.954 13.892 138.19 13.976 138.342 14.144C138.502 14.312 138.582 14.528 138.582 14.792C138.582 15.056 138.502 15.276 138.342 15.452C138.19 15.62 137.954 15.704 137.634 15.704ZM137.022 23V17.732H136.11V16.484H138.69V23H137.022ZM140.768 23V17.816H139.952V16.592H140.768V16.328C140.768 15.584 140.972 15.036 141.38 14.684C141.796 14.324 142.408 14.144 143.216 14.144H144.032V15.428H143.096C142.848 15.428 142.656 15.496 142.52 15.632C142.392 15.76 142.328 15.944 142.328 16.184V16.592H144.14V17.816H142.328V23H140.768ZM146.654 22.856L144.542 16.484H146.222L147.806 21.536H148.07L149.378 16.484H150.974L149.042 23.576C148.842 24.304 148.526 24.816 148.094 25.112C147.67 25.416 147.058 25.568 146.258 25.568H145.19V24.14H146.414C146.75 24.14 147.01 24.072 147.194 23.936C147.386 23.808 147.53 23.568 147.626 23.216L147.722 22.856H146.654Z" fill="#1A047B"/>
<g clip-path="url(#clip0)">
<path d="M16.8432 11.2763C12.5117 13.0857 10.4669 18.0642 12.2763 22.3958C14.0857 26.7273 19.0642 28.7721 23.3958 26.9627C27.7268 25.1535 29.7721 20.1748 27.9627 15.8432C26.1533 11.5117 21.1742 9.46711 16.8432 11.2763ZM24.8477 21.4911C24.7201 21.5444 24.616 21.5363 24.467 21.5132C23.0422 21.3014 21.4746 21.5313 19.9702 22.1597C19.131 22.5103 18.3315 22.9707 17.6101 23.4649C17.4932 23.5469 17.3524 23.6641 17.2562 23.7043C16.9587 23.8285 16.661 23.6747 16.554 23.4185C16.4162 23.0885 16.5378 22.8461 16.7557 22.7017C17.6324 22.0763 18.5445 21.5473 19.5463 21.1288C21.263 20.4117 22.9563 20.1668 24.6025 20.4058C24.8465 20.4384 25.0095 20.5067 25.1307 20.7969C25.2483 21.08 25.105 21.3837 24.8477 21.4911ZM24.8342 19.0581C24.6648 19.1289 24.529 19.1051 24.3853 19.086C22.7929 18.8625 20.8149 19.098 18.8787 19.9068C17.8857 20.3216 17.0863 20.8189 16.4556 21.304C16.3204 21.4096 16.2536 21.4909 16.1109 21.5506C15.7731 21.6917 15.3832 21.5315 15.241 21.1911C15.1019 20.858 15.1676 20.561 15.4554 20.3327C16.2358 19.7223 17.0583 19.1595 18.3686 18.6122C20.422 17.7545 22.622 17.4361 24.5726 17.7187C24.898 17.7596 25.0735 17.9093 25.1903 18.189C25.3316 18.5286 25.1752 18.9157 24.8342 19.0581ZM24.7989 16.2375C24.6394 16.3041 24.5286 16.3049 24.3455 16.2856C22.5703 16.0274 20.1706 16.4795 18.0404 17.3694C16.9769 17.8136 15.9418 18.3731 15.0646 19.0546C14.9626 19.131 14.8426 19.248 14.6983 19.3083C14.28 19.483 13.8207 19.2862 13.646 18.8679C13.468 18.4417 13.632 18.0919 13.8818 17.8887C14.8621 17.0923 16.046 16.4172 17.4024 15.8506C19.7051 14.8887 22.3266 14.3501 24.5309 14.6508C24.8263 14.6858 25.0764 14.8202 25.2324 15.1936C25.4111 15.6213 25.1952 16.0719 24.7989 16.2375Z" fill="#1A047B"/>
</g>
<defs>
<filter id="filter0_d" x="0" y="0" width="165" height="42" filterUnits="userSpaceOnUse" color-interpolation-filters="sRGB">
<feFlood flood-opacity="0" result="BackgroundImageFix"/>
<feColorMatrix in="SourceAlpha" type="matrix" values="0 0 0 0 0 0 0 0 0 0 0 0 0 0 0 0 0 0 127 0"/>
<feOffset dy="2"/>
<feGaussianBlur stdDeviation="1"/>
<feColorMatrix type="matrix" values="0 0 0 0 0 0 0 0 0 0 0 0 0 0 0 0 0 0 0.25 0"/>
<feBlend mode="normal" in2="BackgroundImageFix" result="effect1_dropShadow"/>
<feBlend mode="normal" in="SourceGraphic" in2="effect1_dropShadow" result="shape"/>
</filter>
<clipPath id="clip0">
<rect width="17" height="17" fill="white" transform="translate(9 14.5526) rotate(-22.6713)"/>
</clipPath>
</defs>
</svg>
