<svg width="48" height="59" viewBox="0 0 48 59" fill="none" xmlns="http://www.w3.org/2000/svg">
<circle cx="23.9687" cy="21.9256" r="21.2871" stroke="#B088F9" stroke-width="1.21641"/>
<circle r="1.82461" transform="matrix(-1 0 0 1 14.2375 18.2763)" stroke="#B088F9" stroke-width="1.21641"/>
<circle r="1.82461" transform="matrix(-1 0 0 1 33.7 18.2763)" stroke="#B088F9" stroke-width="1.21641"/>
<line x1="14.2375" y1="31.0485" x2="33.738" y2="31.0485" stroke="#B088F9" stroke-width="1.21641"/>
<path d="M1.96526 56.4072V47.5275H3.91151L8.42438 55.3368H8.57035V47.5275H9.71377V56.4072H7.74319L3.23033 48.5979H3.08436V56.4072H1.96526ZM14.879 56.6262C14.3114 56.6262 13.8208 56.5289 13.4072 56.3342C12.9936 56.1396 12.6571 55.8842 12.3976 55.5679C12.1381 55.2435 11.9434 54.8827 11.8137 54.4853C11.692 54.0879 11.6312 53.6825 11.6312 53.2689V53.0499C11.6312 52.6283 11.692 52.2187 11.8137 51.8214C11.9434 51.424 12.1381 51.0672 12.3976 50.7509C12.6571 50.4266 12.9855 50.1711 13.3829 49.9846C13.7883 49.79 14.2627 49.6927 14.806 49.6927C15.5116 49.6927 16.0914 49.8467 16.5455 50.1549C17.0077 50.4549 17.3483 50.8442 17.5673 51.3226C17.7944 51.8011 17.9079 52.312 17.9079 52.8553V53.3784H12.7503C12.7909 54.019 12.9814 54.5502 13.322 54.9719C13.6626 55.3936 14.1816 55.6044 14.879 55.6044C15.3899 55.6044 15.8035 55.4909 16.1198 55.2638C16.4441 55.0367 16.6388 54.7732 16.7036 54.4731H17.7984C17.6605 55.1462 17.3321 55.6733 16.8131 56.0545C16.2941 56.4356 15.6494 56.6262 14.879 56.6262ZM14.806 50.7144C14.2222 50.7144 13.764 50.8807 13.4315 51.2132C13.099 51.5375 12.8882 51.9673 12.799 52.5026H16.7645C16.6915 51.9511 16.4928 51.5173 16.1684 51.201C15.844 50.8766 15.3899 50.7144 14.806 50.7144ZM21.8163 56.6019C21.0459 56.6019 20.4539 56.3505 20.0403 55.8477C19.6267 55.3449 19.4199 54.6191 19.4199 53.6703V49.8995H20.5877V53.9014C20.5877 54.4123 20.7255 54.8137 21.0013 55.1057C21.277 55.3895 21.65 55.5314 22.1204 55.5314C22.6069 55.5314 23.0043 55.3773 23.3124 55.0692C23.6206 54.7529 23.7747 54.3231 23.7747 53.7798V49.8995H24.9424V56.4072H24.018V54.911C23.872 55.4625 23.6206 55.8842 23.2638 56.1761C22.907 56.4599 22.4407 56.6019 21.8649 56.6019H21.8163ZM29.7342 56.4802C29.2476 56.4802 28.826 56.4113 28.4691 56.2734C28.1204 56.1356 27.8488 55.9004 27.6542 55.5679C27.4676 55.2273 27.3744 54.7691 27.3744 54.1934V50.7874H26.2553V49.9116H27.3744V47.941H28.4935V49.9116H30.7317V50.7874H28.4935V54.3393C28.4935 54.688 28.5867 54.9597 28.7732 55.1543C28.9679 55.3408 29.2395 55.4341 29.5882 55.4341H30.7317V56.4802H29.7342ZM32.3833 56.4072V49.9116H33.3078V51.8579C33.4051 51.1605 33.6605 50.6496 34.0741 50.3252C34.4877 50.0008 35.0513 49.8386 35.7649 49.8386H35.9839V50.8847H35.5703C34.9215 50.8847 34.4228 51.0591 34.0741 51.4078C33.7254 51.7484 33.5511 52.2431 33.5511 52.8918V56.4072H32.3833ZM39.149 56.5775C38.411 56.5775 37.8312 56.3951 37.4095 56.0301C36.996 55.6571 36.7892 55.1341 36.7892 54.461C36.7892 53.7717 37.0203 53.2527 37.4825 52.904C37.9448 52.5472 38.5976 52.3688 39.4409 52.3688H41.0831V52.2106C41.0831 51.3105 40.629 50.8604 39.7207 50.8604C39.3477 50.8604 38.9584 50.8685 38.553 50.8847C38.1475 50.901 37.811 50.9172 37.5433 50.9334V49.9116C37.8028 49.8873 38.0907 49.8711 38.407 49.863C38.7314 49.8467 39.0395 49.8386 39.3315 49.8386C40.3289 49.8386 41.0547 50.0211 41.5088 50.386C41.9711 50.7509 42.2022 51.3875 42.2022 52.2958V56.4072H41.2777V55.1178C40.9858 56.091 40.2762 56.5775 39.149 56.5775ZM39.3923 55.6531C39.668 55.6531 39.9316 55.6044 40.1829 55.5071C40.4343 55.4017 40.6411 55.2314 40.8033 54.9962C40.9736 54.7529 41.0669 54.4204 41.0831 53.9987V53.2446H39.3923C38.9219 53.2446 38.5611 53.3581 38.3097 53.5852C38.0583 53.8122 37.9326 54.1042 37.9326 54.461C37.9326 54.8178 38.0583 55.1057 38.3097 55.3246C38.5611 55.5436 38.9219 55.6531 39.3923 55.6531ZM44.4184 56.4072V48.4519H43.5183V47.5275H45.5862V56.4072H44.4184Z" fill="#B088F9"/>
</svg>
