<svg width="23" height="23" viewBox="0 0 23 23" fill="none" xmlns="http://www.w3.org/2000/svg">
<g clip-path="url(#clip0)">
<path d="M7.84321 3.27621C3.51167 5.08559 1.4669 10.0642 3.27628 14.3957C5.08566 18.7272 10.0642 20.772 14.3958 18.9626C18.7268 17.1535 20.7721 12.1747 18.9627 7.84315C17.1533 3.5116 12.1742 1.46705 7.84321 3.27621ZM15.8477 13.4911C15.7201 13.5444 15.616 13.5363 15.467 13.5132C14.0422 13.3014 12.4746 13.5312 10.9702 14.1596C10.131 14.5102 9.33154 14.9707 8.61005 15.4649C8.49322 15.5468 8.3524 15.664 8.25619 15.7042C7.95867 15.8285 7.66103 15.6746 7.55401 15.4184C7.41619 15.0885 7.53784 14.846 7.75571 14.7016C8.63243 14.0762 9.54451 13.5472 10.5463 13.1287C12.263 12.4117 13.9563 12.1667 15.6025 12.4058C15.8465 12.4384 16.0095 12.5066 16.1307 12.7968C16.2483 13.0799 16.105 13.3836 15.8477 13.4911ZM15.8342 11.058C15.6648 11.1288 15.529 11.1051 15.3853 11.0859C13.7929 10.8625 11.8149 11.0979 9.87868 11.9067C8.88573 12.3215 8.0863 12.8188 7.4556 13.3039C7.32039 13.4096 7.25364 13.4909 7.1109 13.5505C6.77311 13.6916 6.38319 13.5314 6.241 13.1911C6.10187 12.858 6.16755 12.5609 6.45539 12.3326C7.23584 11.7223 8.05826 11.1595 9.3686 10.6121C11.422 9.7544 13.622 9.43601 15.5726 9.71863C15.898 9.75958 16.0735 9.90919 16.1903 10.1889C16.3316 10.5285 16.1752 10.9156 15.8342 11.058ZM15.7989 8.23742C15.6394 8.30404 15.5286 8.30488 15.3455 8.28556C13.5703 8.02732 11.1706 8.47945 9.04043 9.36929C7.97689 9.81355 6.94183 10.373 6.06459 11.0545C5.96262 11.1309 5.84263 11.248 5.69832 11.3082C5.28001 11.483 4.8207 11.2861 4.64597 10.8678C4.46796 10.4417 4.63198 10.0919 4.88178 9.88865C5.8621 9.09226 7.046 8.41716 8.40235 7.85059C10.7051 6.88867 13.3266 6.35003 15.5309 6.65069C15.8263 6.68578 16.0764 6.82016 16.2324 7.1935C16.4111 7.62121 16.1952 8.07186 15.7989 8.23742Z" fill="#1A047B"/>
</g>
<defs>
<clipPath id="clip0">
<rect width="17" height="17" fill="white" transform="translate(0 6.55249) rotate(-22.6713)"/>
</clipPath>
</defs>
</svg>
