<svg width="1258" height="1087" viewBox="0 0 1258 1087" fill="none" xmlns="http://www.w3.org/2000/svg">
<path d="M241.317 97.3586C370.929 77.7932 462.738 190.657 492.44 249.534L496.828 255.648L500.541 249.534C518.093 208.773 542.395 180.24 580.199 146.272C618.002 112.304 674.708 104.152 724.662 97.3586C774.617 90.565 856.975 121.815 893.428 162.577C929.882 203.338 977.136 282.143 983.887 367.742C989.287 436.221 970.835 497.725 960.935 519.917L919.081 596.005C798.919 741.387 552.116 1039.76 526.194 1070.19C500.271 1100.63 467.688 1082.88 454.637 1070.19L33.3973 553.885C-27.0884 432.145 8.1949 300.259 33.3973 249.534C48.6987 206.961 111.705 116.924 241.317 97.3586Z" fill="#A3DDCB"/>
<path d="M394.638 338.236C470.41 332.97 525.662 388.684 541.74 419.461C561.992 458.229 591.928 525.079 610.608 576.987L930.991 96.678C965.481 106.921 982.899 121.181 999.631 140C1037.66 182.77 1055.37 290.01 1055.37 290.01C1066.5 365.333 1147.85 383.622 1188.32 388.18L1094.06 608.484C975.999 542.193 944.411 408.13 943.375 349.385C855.651 473.087 675.744 729.568 657.903 765.876C635.602 811.262 555.649 863.719 473.626 830.009C408.008 803.041 351.561 754.877 331.54 734.166C298.02 707.186 228.164 632.568 216.898 549.935C205.632 467.302 242.848 409.757 262.865 391.314C275.217 375.815 318.865 343.501 394.638 338.236Z" fill="#1A047B"/>
<path d="M481.509 466.188C473.312 494.363 449.871 447.06 426.828 438.08C403.785 429.101 357.98 449.42 366.176 421.245C374.373 393.07 416.659 384.118 439.702 393.098C462.745 402.077 489.706 438.013 481.509 466.188Z" fill="#A3DDCB"/>
</svg>
